<?xml version="1.0"?>
<svg xmlns="http://www.w3.org/2000/svg" id="Outline" viewBox="0 0 512 512" width="512" height="512"><path d="M488,264H424.7L439.361,88H448a8,8,0,0,0,8-8V64a24.028,24.028,0,0,0-24-24H304a24.028,24.028,0,0,0-24,24V80a8,8,0,0,0,8,8h8.639l4,48H160a8,8,0,0,0-7.761,6.06l-16,64a7.985,7.985,0,0,0,0,3.88L149.754,264H88a8,8,0,0,0-8,8v80H24a8,8,0,0,0-8,8V464a8,8,0,0,0,8,8H88a8,8,0,0,0,8-8v-8H263.018a43.359,43.359,0,0,0,20.7-5.278L362.04,408H488a8,8,0,0,0,8-8V272A8,8,0,0,0,488,264Zm-8,64H278.7a35.153,35.153,0,0,0-2.843-16H328a8,8,0,0,0,7.761-6.06L342.246,280H480ZM270.246,296l-4-16h59.508l-4,16Zm-1.821,54.888A35.277,35.277,0,0,0,273.786,344h51.968l-4,16H270.246l-2.186-8.746ZM296,64a8.009,8.009,0,0,1,8-8H432a8.009,8.009,0,0,1,8,8v8H296ZM423.305,88l-1.333,16H314.028L312.7,88ZM315.361,120H420.639l-12,144H346.246l13.515-54.06a7.985,7.985,0,0,0,0-3.88l-16-64A8,8,0,0,0,336,136H316.694ZM166.246,152H329.754l12,48H154.246Zm95.508,64-4,16H238.246l-4-16Zm-107.508,0h63.508l6.485,25.94A8,8,0,0,0,232,248h32a8,8,0,0,0,7.761-6.06L278.246,216h63.508l-12,48H166.246Zm95.508,64,3.011,12.045a35.254,35.254,0,0,0-30.875,6.128L183.541,328H96V280ZM96,360V344h34.207a43.232,43.232,0,0,0-18.088,32H96ZM80,456H32V368H80Zm196.056-19.325A27.3,27.3,0,0,1,263.018,440H96V392h19.227A12.788,12.788,0,0,0,128,379.227,27.258,27.258,0,0,1,155.227,352h19.666a11.287,11.287,0,0,0,6.893-2.365L231.713,310.8a19.227,19.227,0,0,1,25.4,28.772l-49.261,49.26A11.226,11.226,0,0,0,215.79,408H328.627ZM227.314,392l27.552-27.552,1.373,5.492A8,8,0,0,0,264,376h64a8,8,0,0,0,7.761-6.06L342.246,344H480v48Z"/></svg>
