<?xml version="1.0" encoding="utf-8"?>
<!-- Generator: Adobe Illustrator 24.0.1, SVG Export Plug-In . SVG Version: 6.00 Build 0)  -->
<svg version="1.1" id="Capa_1" xmlns="http://www.w3.org/2000/svg" xmlns:xlink="http://www.w3.org/1999/xlink" x="0px" y="0px"
	 viewBox="0 0 512 512" style="enable-background:new 0 0 512 512;" xml:space="preserve">
<g>
	<g>
		<path d="M256,132.2c-68.3,0-123.8,55.5-123.8,123.8S187.7,379.8,256,379.8S379.8,324.3,379.8,256S324.3,132.2,256,132.2z
			 M256,362.4c-58.7,0-106.4-47.7-106.4-106.4S197.3,149.6,256,149.6S362.4,197.3,362.4,256S314.7,362.4,256,362.4z"/>
	</g>
</g>
<g>
	<g>
		<path d="M474.6,33.8c-2.8-1.5-6.3-1.3-9,0.5c-42.8,28.9-68.4,77-68.4,128.7v113.1c0,12.1,4.7,23.5,13.3,32.1l16.3,16.3V453
			c0,14.4,11.7,26.2,26.2,26.2s26.2-11.7,26.2-26.2V41.5C479.2,38.3,477.4,35.3,474.6,33.8z M461.8,453c0,4.8-3.9,8.7-8.7,8.7
			s-8.7-3.9-8.7-8.7V321c0-2.3-0.9-4.5-2.6-6.2l-18.9-18.9c-5.3-5.3-8.2-12.3-8.2-19.8V163c0-40.1,17.3-77.8,47.1-103.8V453z"/>
	</g>
</g>
<g>
	<g>
		<path d="M236,186.9c-1.9-4.4-7-6.5-11.4-4.6c-29.6,12.6-48.7,41.6-48.7,73.7c0,4.8,3.9,8.7,8.7,8.7c4.8,0,8.7-3.9,8.7-8.7
			c0-25.2,15-47.8,38.1-57.7C235.8,196.4,237.9,191.3,236,186.9z"/>
	</g>
</g>
<g>
	<g>
		<path d="M256,175.9l-0.4,0c-4.8,0-8.7,4-8.7,8.8c0,4.8,3.9,8.7,8.7,8.7c0,0,0,0,0.1,0l0.3,0c4.8,0,8.7-3.9,8.7-8.7
			C264.7,179.8,260.8,175.9,256,175.9z"/>
	</g>
</g>
<g>
	<g>
		<path d="M376.9,141.3c-15.4-16.2-33.6-29-54-38c-21.1-9.3-43.6-14-66.9-14c-26.6,0-52,6.1-75.5,18.1c-4.3,2.2-6,7.4-3.8,11.7
			c2.2,4.3,7.4,6,11.7,3.8c21.1-10.7,43.8-16.2,67.6-16.2c41.3,0,79.8,16.5,108.2,46.5c1.7,1.8,4,2.7,6.3,2.7c2.2,0,4.3-0.8,6-2.4
			C380,150.3,380.2,144.8,376.9,141.3z"/>
	</g>
</g>
<g>
	<g>
		<path d="M385.3,347c-3.8-3-9.3-2.3-12.2,1.4c-28.5,36.1-71.2,56.7-117.1,56.7c-28.7,0-56.6-8.2-80.7-23.7c-4-2.6-9.4-1.4-12.1,2.6
			c-2.6,4-1.4,9.4,2.6,12.1c26.9,17.3,58,26.4,90.1,26.4c51.3,0,98.9-23.1,130.8-63.4C389.7,355.5,389.1,350,385.3,347z"/>
	</g>
</g>
<g>
	<g>
		<path d="M151.3,362.3l-0.1-0.1c0-0.1-0.1-0.1-0.1-0.2c-3.1-3.7-8.6-4.2-12.3-1.1c-3.7,3.1-4.2,8.6-1.1,12.3l0.1,0.1l0,0
			c0.1,0.1,0.2,0.2,0.3,0.3c1.7,2,4.2,3,6.6,3c2,0,4-0.7,5.7-2.1C154.1,371.5,154.5,366,151.3,362.3z"/>
	</g>
</g>
<g>
	<g>
		<path d="M140.9,32.8c-4.8,0-8.7,3.9-8.7,8.7v94.2h-15.7c0,0,0-0.1,0-0.1v-94c0-4.8-3.9-8.7-8.7-8.7s-8.7,3.9-8.7,8.7v94
			c0,0,0,0.1,0,0.1H83.4c0,0,0-0.1,0-0.1v-94c0-4.8-3.9-8.7-8.7-8.7c-4.8,0-8.7,3.9-8.7,8.7v94c0,0,0,0.1,0,0.1H50.2V41.5
			c0-4.8-3.9-8.7-8.7-8.7s-8.7,3.9-8.7,8.7v106.4c0,21.4,13,40.7,32.3,49V453c0,14.4,11.7,26.2,26.2,26.2s26.2-11.7,26.2-26.2V196.9
			c19.3-8.3,32.3-27.6,32.3-49V41.5C149.6,36.7,145.7,32.8,140.9,32.8z M106.2,182.4c-3.7,1.1-6.3,4.5-6.3,8.4V453
			c0,4.8-3.9,8.7-8.7,8.7s-8.7-3.9-8.7-8.7V190.8c0-3.9-2.6-7.3-6.3-8.4c-13.6-3.9-23.5-15.6-25.6-29.3h81.2
			C129.8,166.8,119.8,178.5,106.2,182.4z"/>
	</g>
</g>
</svg>
